<?xml version="1.0" encoding="UTF-8" standalone="no"?>
<!-- Generator: Adobe Illustrator 19.0.0, SVG Export Plug-In . SVG Version: 6.00 Build 0)  -->

<svg
   version="1.1"
   id="Layer_1"
   x="0px"
   y="0px"
   viewBox="0 0 507.8 507.8"
   style="enable-background:new 0 0 507.8 507.8;"
   xml:space="preserve"
   sodipodi:docname="setOf3.svg"
   inkscape:version="1.1.1 (c3084ef, 2021-09-22)"
   xmlns:inkscape="http://www.inkscape.org/namespaces/inkscape"
   xmlns:sodipodi="http://sodipodi.sourceforge.net/DTD/sodipodi-0.dtd"
   xmlns="http://www.w3.org/2000/svg"
   xmlns:svg="http://www.w3.org/2000/svg"><defs
   id="defs917" /><sodipodi:namedview
   id="namedview915"
   pagecolor="#505050"
   bordercolor="#eeeeee"
   borderopacity="1"
   inkscape:pageshadow="0"
   inkscape:pageopacity="0"
   inkscape:pagecheckerboard="0"
   showgrid="false"
   inkscape:zoom="0.90028971"
   inkscape:cx="240.47815"
   inkscape:cy="251.58568"
   inkscape:window-width="1280"
   inkscape:window-height="701"
   inkscape:window-x="0"
   inkscape:window-y="23"
   inkscape:window-maximized="1"
   inkscape:current-layer="Layer_1" />
<path
   style="fill:#FFD15C;"
   d="M451.4,95.5h-395c0,31.2-25.3,56.4-56.4,56.4v204c31.2,0,56.4,25.3,56.4,56.4h395  c0-31.2,25.3-56.4,56.4-56.4v-204C476.7,151.9,451.4,126.7,451.4,95.5z"
   id="path824" />
<g
   id="g862">
	<path
   style="fill:#FFFFFF;"
   d="M113.5,372.8h-26l-1.6-3.1c-3.2-6.3-7.1-12.4-11.6-17.9l8.7-7.1c4.3,5.3,8.1,10.9,11.3,16.9h19.1   v11.2H113.5z"
   id="path826" />
	<path
   style="fill:#FFFFFF;"
   d="M71.8,348.8c-0.9-1-1.7-1.9-2.7-2.9l8.1-7.8c1,1.1,2,2.1,3,3.2L71.8,348.8z M66.3,343.1   c-0.9-0.9-1.9-1.8-2.9-2.7l7.5-8.4c1.1,1,2.2,2,3.2,3L66.3,343.1z"
   id="path828" />
	<path
   style="fill:#FFFFFF;"
   d="M60.5,337.9c-5.5-4.5-11.6-8.4-17.9-11.6l-3.1-1.6v-26.1h11.3v19.3c6,3.2,11.6,7,16.9,11.3   L60.5,337.9z"
   id="path830" />
	<path
   style="fill:#FFFFFF;"
   d="M50.8,280.8H39.5v-17.9h11.3C50.8,262.9,50.8,280.8,50.8,280.8z M50.8,244.9H39.5V227h11.3   C50.8,227,50.8,244.9,50.8,244.9z"
   id="path832" />
	<path
   style="fill:#FFFFFF;"
   d="M50.8,209H39.5v-26.1l3.1-1.6c6.4-3.2,12.4-7.1,17.9-11.6l7.1,8.8c-5.3,4.3-10.9,8.1-16.9,11.3V209   H50.8z"
   id="path834" />
	<path
   style="fill:#FFFFFF;"
   d="M71,175.8l-7.5-8.4c1-0.9,1.9-1.8,2.9-2.7l7.8,8.1C73.1,173.8,72.1,174.8,71,175.8z M77.3,169.7   l-8.2-7.8c0.9-0.9,1.8-1.9,2.7-2.9l8.5,7.5C79.3,167.5,78.3,168.6,77.3,169.7z"
   id="path836" />
	<path
   style="fill:#FFFFFF;"
   d="M83.1,163.2l-8.7-7.1c4.5-5.5,8.4-11.6,11.6-17.9l1.6-3.1h26.1v11.3H94.4   C91.2,152.2,87.4,157.9,83.1,163.2z"
   id="path838" />
	<path
   style="fill:#FFFFFF;"
   d="M215.6,146.3h-25.5V135h25.5V146.3z M164.6,146.3h-25.5V135h25.5V146.3z"
   id="path840" />
	<path
   style="fill:#FFFFFF;"
   d="M368.8,146.3h-25.5V135h25.5V146.3z M317.7,146.3h-25.5V135h25.5V146.3z M266.7,146.3h-25.5V135   h25.5V146.3z"
   id="path842" />
	<path
   style="fill:#FFFFFF;"
   d="M424.7,163.2c-4.3-5.3-8.1-10.9-11.3-16.9h-19.1V135h26.1l1.6,3.1c3.2,6.3,7,12.4,11.6,17.9   L424.7,163.2z"
   id="path844" />
	<path
   style="fill:#FFFFFF;"
   d="M436.9,175.8c-1.1-1-2.2-2-3.2-3l7.8-8.1c0.9,0.9,1.9,1.8,2.9,2.7L436.9,175.8z M430.5,169.7   c-1-1.1-2-2.1-3-3.2l8.4-7.5c0.9,1,1.8,1.9,2.7,2.9L430.5,169.7z"
   id="path846" />
	<path
   style="fill:#FFFFFF;"
   d="M468.3,209H457v-19.1c-5.9-3.2-11.6-7-16.9-11.3l7.1-8.8c5.5,4.5,11.6,8.4,17.9,11.6l3.1,1.6v26   H468.3z"
   id="path848" />
	<path
   style="fill:#FFFFFF;"
   d="M468.3,280.8H457v-17.9h11.3V280.8z M468.3,244.9H457V227h11.3V244.9z"
   id="path850" />
	<path
   style="fill:#FFFFFF;"
   d="M447.3,337.9l-7.1-8.8c5.3-4.3,10.9-8.1,16.9-11.3v-19.1h11.3v26.1l-3.1,1.6   C458.9,329.5,452.8,333.4,447.3,337.9z"
   id="path852" />
	<path
   style="fill:#FFFFFF;"
   d="M436,348.8l-8.5-7.5c1-1.1,2-2.2,3-3.2l8.2,7.8C437.7,346.9,436.8,347.8,436,348.8z M441.4,343.1   l-7.8-8.1c1.1-1,2.1-2,3.2-3l7.5,8.4C443.3,341.3,442.4,342.2,441.4,343.1z"
   id="path854" />
	<path
   style="fill:#FFFFFF;"
   d="M420.3,372.8h-26.1v-11.3h19.1c3.2-5.9,7-11.6,11.3-16.9l8.8,7.1c-4.5,5.5-8.4,11.6-11.6,17.9   L420.3,372.8z"
   id="path856" />
	<path
   style="fill:#FFFFFF;"
   d="M368.8,372.8h-25.5v-11.3h25.5V372.8z M317.7,372.8h-25.5v-11.3h25.5V372.8z"
   id="path858" />
	<path
   style="fill:#FFFFFF;"
   d="M266.7,372.8h-25.5v-11.3h25.5V372.8z M215.6,372.8h-25.5v-11.3h25.5V372.8z M164.6,372.8h-25.5   v-11.3h25.5V372.8z"
   id="path860" />
</g>


<g
   id="g884">
</g>
<g
   id="g886">
</g>
<g
   id="g888">
</g>
<g
   id="g890">
</g>
<g
   id="g892">
</g>
<g
   id="g894">
</g>
<g
   id="g896">
</g>
<g
   id="g898">
</g>
<g
   id="g900">
</g>
<g
   id="g902">
</g>
<g
   id="g904">
</g>
<g
   id="g906">
</g>
<g
   id="g908">
</g>
<g
   id="g910">
</g>
<g
   id="g912">
</g>
<text
   xml:space="preserve"
   style="font-size:57.3333px;line-height:1.25;font-family:Yellowtail;-inkscape-font-specification:Yellowtail;fill:#162d50"
   x="58.354874"
   y="233.71611"
   id="text1843"><tspan
     sodipodi:role="line"
     id="tspan1841"
     x="58.354874"
     y="233.71611"
     style="font-style:normal;font-variant:normal;font-weight:bold;font-stretch:normal;font-size:57.3333px;font-family:'Avenir Next';-inkscape-font-specification:'Avenir Next Bold';fill:#162d50">AVAILABLE IN </tspan></text><text
   xml:space="preserve"
   style="font-size:80px;line-height:1.25;font-family:Yellowtail;-inkscape-font-specification:Yellowtail;fill:#162d50"
   x="80.822281"
   y="325.36771"
   id="text1843-7"><tspan
     sodipodi:role="line"
     id="tspan1841-1"
     x="80.822281"
     y="325.36771"
     style="font-style:normal;font-variant:normal;font-weight:bold;font-stretch:normal;font-size:80px;font-family:'Avenir Next';-inkscape-font-specification:'Avenir Next Bold';fill:#d40055">SET OF 3</tspan></text></svg>
